<svg xmlns="http://www.w3.org/2000/svg" width="166" height="166" viewBox="0 0 166 166">
  <g id="组_2" data-name="组 2" transform="translate(-1168 -374)">
    <g id="椭圆_1" data-name="椭圆 1" transform="translate(1168 374)" fill="none" stroke="#dac9a6" stroke-width="6">
      <circle cx="83" cy="83" r="83" stroke="none"/>
      <circle cx="83" cy="83" r="80" fill="none"/>
    </g>
    <path id="路径_2" data-name="路径 2" d="M77.88-59.4h1.76a8.869,8.869,0,0,1,2.64,1.76q2.2,1.76,2.2,2.2,0,.88-2.2,2.2a11.2,11.2,0,0,0-2.64,2.64,17.507,17.507,0,0,1-4.4,2.64q-1.32.44-.44,2.2a14.21,14.21,0,0,1,.88,5.28q0,2.2,1.32,2.2a9.269,9.269,0,0,0-.22-1.54l-.22-1.1q0-1.32,1.32,0a9.438,9.438,0,0,1,2.2,1.76q2.2.88,2.2,2.64a4.277,4.277,0,0,1-.88,2.2,7.04,7.04,0,0,1-2.42,2.2,5.071,5.071,0,0,0-1.76,1.32A24.571,24.571,0,0,0,77-25.96a11.877,11.877,0,0,0-.22,3.74q.22,1.1,1.1.66l3.52-1.32q5.28-.44,6.16,2.2,1.32,1.32-.88,5.72-2.2,4.84-4.4,6.16L79.64-7.48q-1.32.44-2.2.66a15.6,15.6,0,0,0-1.98.66q-1.1.44-1.54,0-.88-.44.44-1.76.88-.88,4.4-5.28,4.84-5.72,4.84-6.6,0-.44-.22-.44h-.66a3.377,3.377,0,0,0-1.32.44,60.34,60.34,0,0,0-14.08,6.16,8.49,8.49,0,0,1-4.4,1.32,11.446,11.446,0,0,1-3.52-.44q-2.2-1.32-4.4-5.28-1.76-3.08-.88-3.52a4.536,4.536,0,0,1,1.76.88,4.731,4.731,0,0,0,2.64.88q1.32,0,5.28-.44,4.4-.44,4.62-.88a17.2,17.2,0,0,0,.22-3.96v-3.96H66.88q-1.32,0-1.54.66t-2.42,1.1q-3.08.44-3.96-1.76a2.147,2.147,0,0,1-.44-1.54v-1.54q.88-2.64,7.04-8.8l4.84-3.96v-2.64q0-2.2-.44-2.42a6.141,6.141,0,0,0-2.64.22,12.582,12.582,0,0,1-6.6,0q-3.52-1.76,0-3.08a70.588,70.588,0,0,0,9.68-3.08Q75.68-58.96,77.88-59.4Zm-2.2,7.04q0-.88-2.64.88a15.524,15.524,0,0,0-1.54,1.1q-.22.22.66.66.44.88.88.88l1.32-1.76ZM69.52-41.8q0-.44-2.2.88A36.368,36.368,0,0,0,60.72-33q-.88,1.32-.66,1.54t1.54-.22A22.634,22.634,0,0,0,66-33.44l2.64-1.32q.44-.44.66-3.52T69.52-41.8ZM34.76-66a5.044,5.044,0,0,1,1.54.44,4.722,4.722,0,0,1,1.54.88q1.76,1.32,1.32,4.4a12.085,12.085,0,0,0-1.1,4.4q-.22,2.64-.66,5.06a7.89,7.89,0,0,0,0,3.74,30.844,30.844,0,0,1-.22,3.3,9.108,9.108,0,0,1-.66,2.86l-.44,9.24q-.44,11.88,0,11.88t1.76-1.98q1.32-1.98,2.2-3.08t1.1-1.1q.22,0,.66.44,0,.44,0,.88a3.377,3.377,0,0,1-.44,1.32l-3.08,6.16q-.44,3.08-.88,3.52a2.671,2.671,0,0,1-.66,1.32q-.66.88-1.1.88a4.535,4.535,0,0,1-1.76-.88,4.535,4.535,0,0,0-1.76-.88q-1.32-1.32-2.2-6.6-1.76-5.72-.66-16.72t3.3-22l.88-2.64q.44-.44,0-.44-.88-.44-6.6,4.4a14.039,14.039,0,0,1-4.4,3.3,9.964,9.964,0,0,1-3.52.66,9.964,9.964,0,0,1-3.52-.66q-1.76-.66-1.76-1.1t1.32-.44a4.571,4.571,0,0,0,3.08-1.76l5.28-2.64q3.08-1.76,6.82-3.96T34.76-66ZM64.68-92.4q0-.44,1.32.44a12.622,12.622,0,0,1,3.08,6.6q1.32,2.2,0,6.6a12.034,12.034,0,0,0-.44,2.64,15.439,15.439,0,0,1-.44,4.4q-.88,1.32,0,1.32a12.254,12.254,0,0,0,2.64-.88q3.08-1.32,8.8-3.08a34.406,34.406,0,0,1,5.06-1.98,15.083,15.083,0,0,1,2.86-.22,18.512,18.512,0,0,1,4.4.44,10.8,10.8,0,0,1,5.72,6.6,35.554,35.554,0,0,1,.44,7.04q0,5.28.44,12.76Q99-37.4,98.12-19.36q-.44,7.92-.44,12.76a38.86,38.86,0,0,1-.22,5.72q-.22.88-.88,3.08a15.338,15.338,0,0,0-.66,2.64q.88.44-.22,3.52a38.768,38.768,0,0,0-1.54,5.28,14.43,14.43,0,0,1-3.3,3.74,9.583,9.583,0,0,1-3.74,1.54,7.81,7.81,0,0,1-2.86-.44q-1.1-.44-1.98-.88a32.361,32.361,0,0,0-3.52-1.32,11.745,11.745,0,0,1-3.08-2.2q-1.32-1.32-1.32-1.76,0-.88.22-.88a10.989,10.989,0,0,1,1.98.88,10.558,10.558,0,0,0,3.96.22,5.806,5.806,0,0,0,3.52-1.1,4.78,4.78,0,0,0,2.42-2.42,7.742,7.742,0,0,0,1.1-3.74,10.237,10.237,0,0,1,1.76-2.64A18.19,18.19,0,0,1,89.54.22a18.832,18.832,0,0,0,.22-1.98,5.311,5.311,0,0,1,.66-1.76,3.832,3.832,0,0,0,.22-2.86,6.7,6.7,0,0,1,.22-3.74q.66-2.2,1.1-3.96v-4.4q3.08-22.44,2.2-37.84,0-9.24-.88-12.54T91.52-72.6q-4.4-1.76-17.16,6.6-7.04,4.4-9.24,4.84l-1.76.44-.88-1.32A14.115,14.115,0,0,1,60.5-64.9a6.674,6.674,0,0,1-.22-1.98q0-3.96,2.64-13.2,2.2-8.36,2.2-10.12A13.227,13.227,0,0,1,64.68-92.4Z" transform="translate(1186 496)" fill="#dac9a6"/>
  </g>
</svg>
